<mxfile host="app.diagrams.net" modified="2023-11-30T03:16:24.083Z" agent="Mozilla/5.0 (Windows NT 10.0; Win64; x64) AppleWebKit/537.36 (KHTML, like Gecko) Chrome/119.0.0.0 Safari/537.36" version="22.1.5" etag="v5juKJiIg3nKjSleVowk" type="device">
  <diagram id="lWXlJgZySnUP39X4avc4" name="Page-1">
    <mxGraphModel dx="1434" dy="750" grid="1" gridSize="10" guides="1" tooltips="1" connect="1" arrows="1" fold="1" page="1" pageScale="1" pageWidth="827" pageHeight="1169" math="0" shadow="0">
      <root>
        <mxCell id="0" />
        <mxCell id="1" parent="0" />
        <mxCell id="-h_BoFI67__IESvtjlxt-1" value="+---------------------+       +---------------------+       +-----------------------+&#xa;|   Sensorprozess    | ----&gt; |  Steuerungsprozess  | ----&gt; |   Aktuatorprozess    |&#xa;|                     |  Sensordaten  Steuerungsbefehle  |                       |&#xa;|    Datenquelle     | &lt;----|    Datenanalyse     | &lt;----|    Aktionen ausführen |&#xa;+---------------------+       +---------------------+       +-----------------------+" style="text;whiteSpace=wrap;" vertex="1" parent="1">
          <mxGeometry x="160" y="440" width="440" height="100" as="geometry" />
        </mxCell>
        <mxCell id="-h_BoFI67__IESvtjlxt-6" value="+---------------------+             +---------------------+             +-----------------------+&#xa;|   Sensorprogramm   |  Pipe (S-&gt;C) |  Steuerungsprogramm |  Pipe (C-&gt;A) |   Aktuatorprogramm   |&#xa;|                    | ------------&gt;|                     | ------------&gt;|                       |&#xa;|    Datenquelle    | &lt;-------------|    Datenanalyse     | &lt;-------------|   Aktionen ausführen |&#xa;+---------------------+             +---------------------+             +-----------------------+" style="text;whiteSpace=wrap;" vertex="1" parent="1">
          <mxGeometry x="110" y="650" width="560" height="110" as="geometry" />
        </mxCell>
      </root>
    </mxGraphModel>
  </diagram>
</mxfile>
